<svg width="150" height="38" viewBox="0 0 150 38" fill="none" xmlns="http://www.w3.org/2000/svg">
<path d="M10.2628 28.9649C11.1968 28.9649 12.2126 28.8723 13.3101 28.6871C13.3883 28.6722 13.466 28.657 13.5431 28.6416C14.8772 28.3742 16.2523 29.3316 16.2523 30.681V31.3396C16.2523 32.1285 15.7706 32.8464 15.0168 33.099C14.2154 33.3675 13.4713 33.5637 12.7847 33.6875C11.7572 33.8958 10.6831 34 9.56224 34C7.5307 34 5.90781 33.7685 4.69355 33.3055C3.4793 32.8425 2.51023 32.1017 1.78635 31.0831C1.17923 30.2034 0.723881 29.0806 0.420318 27.7148C0.140106 26.3489 0 24.6937 0 22.7491C0 18.8599 0.840637 16.024 2.52191 14.2414C4.22653 12.4357 6.92358 11.5329 10.613 11.5329C11.6872 11.5329 12.6446 11.556 13.4852 11.6023C13.7078 11.6146 13.9246 11.6293 14.1357 11.6464C15.0797 11.723 15.7619 12.5314 15.7619 13.4704V14.4836C15.7619 15.595 14.8172 16.4751 13.6968 16.4395C13.5802 16.4358 13.463 16.4323 13.3451 16.4291C12.5278 16.406 11.6171 16.3944 10.613 16.3944C9.32873 16.3944 8.37134 16.5217 7.74086 16.7764C7.13373 17.0079 6.67839 17.4246 6.37483 18.0265C6.09461 18.4895 5.89613 19.1029 5.77938 19.8669C5.66262 20.6308 5.60424 21.5916 5.60424 22.7491C5.60424 23.8371 5.65094 24.7515 5.74435 25.4923C5.8611 26.21 6.03624 26.8119 6.26975 27.2981C6.57331 27.9 7.01698 28.3282 7.60075 28.5829C8.18453 28.8375 9.07187 28.9649 10.2628 28.9649Z" fill="#DA9958"/>
<path d="M21.9454 34C20.1708 34 18.8631 33.5601 18.0225 32.6804C17.2052 31.8007 16.7965 30.4117 16.7965 28.5134C16.7965 26.5688 17.2869 25.203 18.2676 24.4159C19.2717 23.6288 20.988 23.2352 23.4165 23.2352C23.977 23.2352 24.5491 23.2699 25.1328 23.3394C25.2453 23.348 25.355 23.3573 25.4619 23.3675C26.1088 23.4291 26.709 22.9419 26.709 22.2976C26.709 21.742 26.4639 21.3369 25.9735 21.0823C25.5065 20.8045 24.7826 20.6656 23.8018 20.6656C22.681 20.6656 21.6769 20.7003 20.7896 20.7697C20.7757 20.7705 20.7619 20.7712 20.7481 20.772C19.527 20.8397 18.4078 19.9217 18.4078 18.7092V18.2925C18.4078 17.4027 19.0213 16.6209 19.9094 16.4924C20.3824 16.424 20.886 16.3681 21.42 16.3249C22.5642 16.2092 23.8952 16.1513 25.4131 16.1513C27.5613 16.1513 29.1842 16.6259 30.2817 17.575C31.4026 18.5242 31.963 19.9248 31.963 21.7768V31.7236C31.963 32.789 31.0918 33.6527 30.0171 33.6527H27.8001C27.3775 33.6527 27.0217 33.3395 26.9717 32.9235L26.8931 32.269C26.888 32.2264 26.8516 32.1943 26.8083 32.1943C26.7894 32.1943 26.771 32.2005 26.756 32.212C26.0383 32.7592 25.2521 33.1932 24.3973 33.5138C23.5333 33.8379 22.716 34 21.9454 34ZM24.1171 26.673C23.183 26.673 22.5526 26.7772 22.2256 26.9855C21.8987 27.1707 21.7353 27.5759 21.7353 28.2009C21.7353 28.7797 21.8637 29.1848 22.1206 29.4163C22.4008 29.6246 22.8795 29.7288 23.5567 29.7288C24.0704 29.7288 24.6074 29.6594 25.1679 29.5205C25.3875 29.466 25.5999 29.4063 25.8052 29.3412C26.3662 29.1633 26.709 28.624 26.709 28.04V27.9338C26.709 27.3153 26.2812 26.7768 25.6582 26.7425C25.2379 26.6962 24.7242 26.673 24.1171 26.673Z" fill="#DA9958"/>
<path d="M40.8487 20.5614C39.868 20.5614 39.2025 20.6424 38.8522 20.8045C38.5253 20.9434 38.3618 21.279 38.3618 21.8115C38.3618 21.9519 38.3883 22.0765 38.4413 22.1853C38.4925 22.2904 38.5797 22.3753 38.6844 22.4286C38.8003 22.4875 38.938 22.5249 39.0974 22.5407L43.2655 23.0963C44.6199 23.2815 45.5656 23.7214 46.1027 24.4159C46.6631 25.0872 46.9433 26.1637 46.9433 27.6453C46.9433 29.8677 46.4413 31.4882 45.4372 32.5068C44.4331 33.5023 42.6818 34 40.1832 34C38.8055 34 37.5562 33.9421 36.4354 33.8264C35.9739 33.7874 35.5413 33.7403 35.1376 33.685C34.248 33.5631 33.6332 32.7827 33.6332 31.8923V31.3231C33.6332 30.0853 34.8096 29.1376 36.0501 29.2774C37.1009 29.37 38.1633 29.4163 39.2375 29.4163C40.1949 29.4163 40.837 29.3237 41.1639 29.1385C41.5142 28.9301 41.6893 28.5482 41.6893 27.9926C41.6893 27.8074 41.631 27.6569 41.5142 27.5411C41.3974 27.4022 41.2457 27.3212 41.0589 27.2981L36.7506 26.7425C35.4896 26.5804 34.5673 26.129 33.9835 25.3882C33.4231 24.6242 33.1429 23.5014 33.1429 22.0198C33.1429 20.0752 33.7617 18.6168 34.9993 17.6445C36.2369 16.649 38.0699 16.1513 40.4984 16.1513C41.4558 16.1513 42.3432 16.1744 43.1604 16.2207C43.4659 16.2381 43.7778 16.2618 44.0962 16.292C45.0523 16.3828 45.7524 17.2014 45.7524 18.1536V18.6752C45.7524 19.8106 44.7244 20.6921 43.5808 20.6308C42.7168 20.5845 41.8061 20.5614 40.8487 20.5614Z" fill="#DA9958"/>
<path d="M54.1794 8.13947C54.1794 8.73822 54.6341 9.2236 55.1949 9.2236H56.3553C57.5571 9.2236 58.5313 8.18357 58.5313 6.90063V4.75629C58.5313 3.46013 57.547 2.40939 56.3329 2.40939H55.263C54.6398 2.40939 54.1346 1.87003 54.1346 1.20469C54.1346 0.53936 53.6294 0 53.0061 0H51.9586C50.7569 0 49.7827 1.04003 49.7827 2.32298V4.70844C49.7827 6.0046 50.7669 7.05534 51.981 7.05534H53.1639C53.7247 7.05534 54.1794 7.54072 54.1794 8.13947Z" fill="#DA9958"/>
<path d="M88.895 31.7236C88.895 32.789 88.0238 33.6527 86.9491 33.6527H85.5869C84.5122 33.6527 83.641 32.789 83.641 31.7236V18.4277C83.641 17.3623 84.5122 16.4985 85.5869 16.4985H87.2777C87.8002 16.4985 88.2396 16.8869 88.2995 17.4014L88.3964 18.2341C88.4011 18.2741 88.4352 18.3043 88.4758 18.3043C88.4975 18.3043 88.5182 18.2955 88.5333 18.2802C89.2739 17.5289 90.0716 16.9929 90.9265 16.6722C91.8138 16.3249 92.8763 16.1513 94.1139 16.1513C96.0754 16.1513 97.5582 16.6259 98.5623 17.575C99.5664 18.5242 100.068 19.9248 100.068 21.7768V31.7236C100.068 32.789 99.1972 33.6527 98.1225 33.6527H96.7604C95.6857 33.6527 94.8145 32.789 94.8145 31.7236V22.4713C94.8145 21.9388 94.5926 21.5337 94.1489 21.2559C93.7286 20.9781 93.0982 20.8392 92.2575 20.8392C91.627 20.8392 91.0199 20.9086 90.4361 21.0475C90.2576 21.09 90.0856 21.1379 89.9202 21.1912C89.2598 21.404 88.895 22.0617 88.895 22.7501V31.7236Z" fill="#DA9958"/>
<path d="M112.579 12.4897C112.579 11.4243 113.451 10.5606 114.525 10.5606H115.887C116.962 10.5606 117.833 11.4243 117.833 12.4897V31.7236C117.833 32.789 116.962 33.6527 115.887 33.6527H113.993C113.52 33.6527 113.116 33.3157 113.035 32.8541L112.907 32.1236C112.9 32.0842 112.865 32.0554 112.825 32.0554C112.802 32.0554 112.781 32.0645 112.765 32.0805C112.14 32.7162 111.401 33.1939 110.548 33.5138C109.684 33.8379 108.703 34 107.606 34C105.317 34 103.683 33.3171 102.702 31.9512C101.744 30.5854 101.266 28.2935 101.266 25.0756C101.266 21.9504 101.873 19.6817 103.087 18.2695C104.325 16.8574 106.321 16.1513 109.077 16.1513C109.754 16.1513 110.384 16.1976 110.968 16.2902C111.782 16.3833 112.579 15.7853 112.579 14.973V12.4897ZM109.812 20.8392C108.411 20.8392 107.512 21.1054 107.115 21.6379C106.718 22.1472 106.52 23.2931 106.52 25.0756C106.52 26.7656 106.695 27.8768 107.045 28.4093C107.395 28.9186 108.213 29.1732 109.497 29.1732C110.104 29.1732 110.665 29.1269 111.178 29.0343C111.256 29.0209 111.332 29.0066 111.406 28.9913C112.145 28.84 112.579 28.1406 112.579 27.3933V22.5192C112.579 21.7697 112.14 21.0655 111.393 20.9494C111.38 20.9473 111.367 20.9453 111.353 20.9434C110.91 20.8739 110.396 20.8392 109.812 20.8392Z" fill="#DA9958"/>
<path d="M131.56 29.0668C132.832 28.8825 134.067 29.8419 134.067 31.1163V31.6459C134.067 32.3111 133.721 32.938 133.086 33.1527C132.585 33.322 131.966 33.4771 131.23 33.618C129.899 33.8727 128.498 34 127.027 34C124.224 34 122.205 33.3055 120.967 31.9165C119.729 30.5043 119.111 28.2241 119.111 25.0756C119.111 21.9967 119.764 19.7396 121.072 18.3043C122.38 16.869 124.446 16.1513 127.272 16.1513C130.027 16.1513 131.965 16.6953 133.086 17.7834C134.23 18.8483 134.802 20.7466 134.802 23.4783C134.802 24.2191 134.791 24.8094 134.767 25.2493C134.721 26.1236 133.963 26.7772 133.08 26.7772H126.394C125.3 26.7772 124.239 27.8394 125.006 28.6126C125.057 28.6646 125.112 28.7126 125.17 28.7565C125.661 29.1269 126.56 29.3121 127.867 29.3121C128.988 29.3121 130.132 29.2427 131.3 29.1038C131.388 29.0915 131.475 29.0792 131.56 29.0668ZM127.272 20.5961C126.151 20.5961 125.392 20.7929 124.995 21.1864C124.897 21.2775 124.812 21.3911 124.738 21.527C124.23 22.4657 125.271 23.4088 126.346 23.4088H129.268C129.694 23.4088 130.039 23.0668 130.039 22.6449C130.016 21.8346 129.817 21.2906 129.443 21.0128C129.093 20.735 128.369 20.5961 127.272 20.5961Z" fill="#DA9958"/>
<path d="M143.655 20.5614C142.675 20.5614 142.009 20.6424 141.659 20.8045C141.332 20.9434 141.169 21.279 141.169 21.8115C141.169 21.9519 141.195 22.0765 141.248 22.1853C141.299 22.2904 141.386 22.3753 141.491 22.4286C141.607 22.4875 141.745 22.5249 141.904 22.5407L146.072 23.0963C147.427 23.2815 148.372 23.7214 148.909 24.4159C149.47 25.0872 149.75 26.1637 149.75 27.6453C149.75 29.8677 149.248 31.4882 148.244 32.5068C147.24 33.5023 145.488 34 142.99 34C141.612 34 140.363 33.9421 139.242 33.8264C138.781 33.7874 138.348 33.7403 137.944 33.685C137.055 33.5631 136.44 32.7827 136.44 31.8923V31.3231C136.44 30.0853 137.616 29.1376 138.857 29.2774C139.908 29.37 140.97 29.4163 142.044 29.4163C143.002 29.4163 143.644 29.3237 143.971 29.1385C144.321 28.9301 144.496 28.5482 144.496 27.9926C144.496 27.8074 144.438 27.6569 144.321 27.5411C144.204 27.4022 144.052 27.3212 143.866 27.2981L139.557 26.7425C138.296 26.5804 137.374 26.129 136.79 25.3882C136.23 24.6242 135.95 23.5014 135.95 22.0198C135.95 20.0752 136.568 18.6168 137.806 17.6445C139.044 16.649 140.877 16.1513 143.305 16.1513C144.263 16.1513 145.15 16.1744 145.967 16.2207C146.273 16.238 146.584 16.2618 146.903 16.292C147.859 16.3828 148.559 17.2014 148.559 18.1536V18.6752C148.559 19.8106 147.531 20.6921 146.387 20.6308C145.523 20.5845 144.613 20.5614 143.655 20.5614Z" fill="#DA9958"/>
<path fill-rule="evenodd" clip-rule="evenodd" d="M81.336 21.5397C82.2554 22.3658 82.3735 23.8311 81.5998 24.8126L80.781 25.8513C80.4594 26.2593 79.8889 26.3117 79.5068 25.9683C78.9186 25.4399 78.0201 25.8863 78.0201 26.707V33.7558C78.0201 36.0998 76.2402 38 74.0446 38H56.1771C53.9815 38 52.2016 36.0998 52.2016 33.7558V26.707C52.2016 25.8864 51.3032 25.44 50.7151 25.9684C50.333 26.3117 49.7625 26.2593 49.4409 25.8514L48.6221 24.8127C47.8482 23.8311 47.9663 22.3657 48.8858 21.5395L52.962 17.8771C53.7339 17.1836 54.1794 16.1617 54.1794 15.0847V13.7579C54.1794 12.475 54.1794 10.8975 56.3329 10.8975H57.5076C58.5313 10.8975 58.5313 11.6394 58.5313 11.8917C58.5313 12.2801 58.9564 12.4913 59.2347 12.2413L63.2589 8.62549C64.3292 7.66388 65.8923 7.66387 66.9625 8.62546L81.336 21.5397ZM56.5535 22.6981V29.1099C56.5535 31.4539 57.2943 33.354 60.529 33.354C61.203 33.4307 62.5508 33.0673 62.5508 31V27.0963C62.656 26.5642 63.1448 25.5 64.2592 25.5H66.1164C66.6345 25.5923 67.6706 26.0407 67.6706 27.0963V31C67.6794 31.7847 68.096 33.354 69.6926 33.354C73.0813 33.4163 73.6681 31.4539 73.6681 29.1099V22.6981C73.6681 21.4457 73.15 20.2573 72.2525 19.4509L67.6706 15.3342C66.1911 14.0049 64.0303 14.005 62.5508 15.3342L57.9691 19.4509C57.0716 20.2573 56.5535 21.4457 56.5535 22.6981Z" fill="#DA9958"/>
</svg>
